<svg xmlns="http://www.w3.org/2000/svg" fill="none" viewBox="-0.5 -0.5 24 24"><path stroke="currentcolor" stroke-linecap="round" stroke-linejoin="round" d="M.5.5h.99c.73,0,1.36.53,1.48,1.25l2.64,15.53c.12.72.75,1.25,1.48,1.25h9.94"></path><path stroke="currentcolor" d="M15.15,20.78c.13,0,.26.07.33.19.14.25-.04.56-.33.56"></path><path stroke="currentcolor" d="M15.15,20.78c-.13,0-.26.07-.33.19-.14.25.04.56.33.56"></path><path stroke="currentcolor" d="M7.64,20.78c.13,0,.26.07.33.19.14.25-.04.56-.33.56"></path><path stroke="currentcolor" d="M7.64,20.78c-.13,0-.26.07-.33.19-.14.25.04.56.33.56"></path><path stroke="currentcolor" stroke-linecap="round" stroke-linejoin="round" d="M3.52,5h17.26c.49,0,.85.46.73.93l-1.45,5.81c-.33,1.34-1.54,2.28-2.92,2.28H5.05"></path></svg>