<svg xmlns="http://www.w3.org/2000/svg" viewBox="0 0 24 24"><path d="M17.174 8.25H4.561a1.5 1.5 0 0 0-1.436 1.413l-2 11.842a1.533 1.533 0 0 0 1.437 1.745h16.611a1.533 1.533 0 0 0 1.437-1.745l-2-11.842a1.5 1.5 0 0 0-1.436-1.413Z" fill="none" stroke="currentColor" stroke-linecap="round" stroke-linejoin="round"></path><path d="M14.553 5.307a3.763 3.763 0 0 0-3.685-3.057h0a3.764 3.764 0 0 0-3.682 3.038" fill="none" stroke="currentColor" stroke-linecap="round" stroke-linejoin="round"></path><path d="M20.618.75 18.368 3l0 2.25 2.25 0L22.868 3 20.618.75z" fill="none" stroke="currentColor" stroke-linecap="round" stroke-linejoin="round"></path></svg>