<svg xmlns="http://www.w3.org/2000/svg" viewBox="0 0 24 24"><path d="M.75 7.5a6 6 0 1 0 12 0 6 6 0 1 0-12 0" fill="none" stroke="currentColor" stroke-linecap="round" stroke-linejoin="round"></path><path d="m4.098 7.5 2.652 0 0-2.652" fill="none" stroke="currentColor" stroke-linecap="round" stroke-linejoin="round"></path><path d="M14.25 12h1.5a1.5 1.5 0 0 1 1.5 1.5v5.288" fill="none" stroke="currentColor" stroke-linecap="round" stroke-linejoin="round"></path><path d="M7.5 21h-.75a1.5 1.5 0 0 1-1.5-1.5v-3" fill="none" stroke="currentColor" stroke-linecap="round" stroke-linejoin="round"></path><path d="M17.25 13.5h3a3 3 0 0 1 3 3v3a1.5 1.5 0 0 1-1.5 1.5h-2.288" fill="none" stroke="currentColor" stroke-linecap="round" stroke-linejoin="round"></path><path d="M15.75 20.625a1.875 1.875 0 1 0 3.75 0 1.875 1.875 0 1 0-3.75 0" fill="none" stroke="currentColor" stroke-linecap="round" stroke-linejoin="round"></path><path d="M7.5 20.625a1.875 1.875 0 1 0 3.75 0 1.875 1.875 0 1 0-3.75 0" fill="none" stroke="currentColor" stroke-linecap="round" stroke-linejoin="round"></path><path d="m15.788 21-4.538 0" fill="none" stroke="currentColor" stroke-linecap="round" stroke-linejoin="round"></path><path d="m23.25 16.5-3 0" fill="none" stroke="currentColor" stroke-linecap="round" stroke-linejoin="round"></path></svg>