<svg xmlns="http://www.w3.org/2000/svg" viewBox="-0.5 -0.5 24 24"><g><path d="M19.67,14.87h1.51c.52-.04.91-.49.88-1.01v-7.47c.09-1.56-1.08-2.9-2.64-3.03h-5.27v11.5" fill="none" stroke="currentcolor" stroke-linecap="round" stroke-linejoin="round"/><path d="M19.67,14.87c0-1.19-.97-2.16-2.16-2.16s-2.16.97-2.16,2.16h0c0,1.19.97,2.16,2.16,2.16,1.19,0,2.16-.97,2.16-2.16" fill="none" stroke="currentcolor" stroke-linecap="round" stroke-linejoin="round"/><path d="M8.41,14.87c0-1.19-.97-2.16-2.16-2.16s-2.16.97-2.16,2.16.97,2.16,2.16,2.16,2.16-.97,2.16-2.16" fill="none" stroke="currentcolor" stroke-linecap="round" stroke-linejoin="round"/><path d="M17.03,3.37v3.47s0,.03,0,.04c.01.45.38.81.83.79h4.2" fill="none" stroke="currentcolor" stroke-linecap="round" stroke-linejoin="round"/><path d="M8.41,14.87h6.95" fill="none" stroke="currentcolor" stroke-linecap="round" stroke-linejoin="round"/><path d="M19.71,11.03h2.36" fill="none" stroke="currentcolor" stroke-linecap="round" stroke-linejoin="round"/><path d="M.5,1.94c0-.79.64-1.44,1.44-1.44h10.78c.79,0,1.44.64,1.44,1.44v8.14s-13.66,0-13.66,0V1.94Z" fill="none" stroke="currentcolor" stroke-linecap="round" stroke-linejoin="round"/><path d="M.5,10.07v3.35c0,.79.64,1.44,1.44,1.44h2.16" fill="none" stroke="currentcolor" stroke-linecap="round" stroke-linejoin="round"/></g></svg>