<svg xmlns="http://www.w3.org/2000/svg" viewBox="-0.5 -0.5 24 24"><path d="M10.78125 16.53125a5.75 5.75 0 1 0 11.5 0 5.75 5.75 0 1 0 -11.5 0" fill="none" stroke="currentcolor" stroke-linecap="round" stroke-linejoin="round"></path><path d="m19.093833333333333 14.859916666666667 -2.783958333333333 3.711625a0.7206666666666667 0.7206666666666667 0 0 1 -1.0838750000000001 0.077625l-1.4375 -1.4375" fill="none" stroke="currentcolor" stroke-linecap="round" stroke-linejoin="round"></path><path d="M7.90625 15.09375h-5.75a1.4375 1.4375 0 0 1 -1.4375 -1.4375v-11.5a1.4375 1.4375 0 0 1 1.4375 -1.4375h17.25a1.4375 1.4375 0 0 1 1.4375 1.4375V8.625" fill="none" stroke="currentcolor" stroke-linecap="round" stroke-linejoin="round"></path><path d="m20.518875 1.2458333333333333 -7.804666666666667 6.003a3.170166666666667 3.170166666666667 0 0 1 -3.8659166666666667 0L1.043625 1.2458333333333333" fill="none" stroke="currentcolor" stroke-linecap="round" stroke-linejoin="round"></path></svg>