<svg xmlns="http://www.w3.org/2000/svg" viewBox="-0.5 -0.5 24 24"><path d="M13.653375 5.03125h7.1875a1.4375 1.4375 0 0 1 1.4375 1.4375v14.375a1.4375 1.4375 0 0 1 -1.4375 1.4375h-12.9375a1.4375 1.4375 0 0 1 -1.4375 -1.4375v-5.75" fill="none" stroke="currentColor" stroke-linecap="round" stroke-linejoin="round"></path><path d="m12.215875 9.34375 7.190375 0" fill="none" stroke="currentColor" stroke-linecap="round" stroke-linejoin="round"></path><path d="m10.059625 13.65625 9.346625000000001 0" fill="none" stroke="currentColor" stroke-linecap="round" stroke-linejoin="round"></path><path d="m10.0625 17.96875 9.34375 0" fill="none" stroke="currentColor" stroke-linecap="round" stroke-linejoin="round"></path><path d="M7.90625 9.34375v-2.875l4.014458333333334 -4.014458333333334a1.0167916666666668 1.0167916666666668 0 0 0 -0.71875 -1.7355416666666668H1.7355416666666668a1.0167916666666668 1.0167916666666668 0 0 0 -0.71875 1.7355416666666668L5.03125 6.46875v5.75Z" fill="none" stroke="currentColor" stroke-linecap="round" stroke-linejoin="round"></path></svg>