<svg xmlns="http://www.w3.org/2000/svg" viewBox="0 0 24 24"><path d="M17.5 7.498a3 3 0 1 0 6 0 3 3 0 1 0-6 0" fill="none" stroke="currentColor" stroke-linecap="round" stroke-linejoin="round"></path><path d="M11 3.498a2.5 2.5 0 1 0 5 0 2.5 2.5 0 1 0-5 0" fill="none" stroke="currentColor" stroke-linecap="round" stroke-linejoin="round"></path><path d="M4 5.498a2.5 2.5 0 1 0 5 0 2.5 2.5 0 1 0-5 0" fill="none" stroke="currentColor" stroke-linecap="round" stroke-linejoin="round"></path><path d="M1 11.498a2 2 0 1 0 4 0 2 2 0 1 0-4 0" fill="none" stroke="currentColor" stroke-linecap="round" stroke-linejoin="round"></path><path d="M2.5 17.498a2 2 0 1 0 4 0 2 2 0 1 0-4 0" fill="none" stroke="currentColor" stroke-linecap="round" stroke-linejoin="round"></path><path d="M8 21.498a1.5 1.5 0 1 0 3 0 1.5 1.5 0 1 0-3 0" fill="none" stroke="currentColor" stroke-linecap="round" stroke-linejoin="round"></path><path d="M13.875 21.644a1 1 0 1 0 2 0 1 1 0 1 0-2 0" fill="none" stroke="currentColor" stroke-linecap="round" stroke-linejoin="round"></path></svg>