<svg xmlns="http://www.w3.org/2000/svg" viewBox="0 0 24 24"><path d="m.75 14.25 0 9" fill="none" stroke="currentColor" stroke-linecap="round" stroke-linejoin="round"></path><path d="M.75 21.75h15a3 3 0 0 0-3-3H9a3 3 0 0 0-3-3H.75" fill="none" stroke="currentColor" stroke-linecap="round" stroke-linejoin="round"></path><path d="m6 18.75 3 0" fill="none" stroke="currentColor" stroke-linecap="round" stroke-linejoin="round"></path><path d="M15.75 13.875 9.358 7.207a3.785 3.785 0 0 1-.709-4.366h0a3.782 3.782 0 0 1 6.057-.983L15.75 2.9l1.044-1.044a3.782 3.782 0 0 1 6.057.983h0a3.783 3.783 0 0 1-.709 4.366Z" fill="none" stroke="currentColor" stroke-linecap="round" stroke-linejoin="round"></path></svg>