<svg xmlns="http://www.w3.org/2000/svg" fill="none" viewBox="0 0 24 24"><path stroke="currentColor" stroke-linecap="round" stroke-linejoin="round" d="M17.5 23.5a6 6 0 1 0 0-12 6 6 0 0 0 0 12Z"></path><path stroke="currentColor" stroke-linecap="round" stroke-linejoin="round" d="M15.625 16.042a1.875 1.875 0 1 1 1.875 1.875v1"></path><path stroke="currentColor" stroke-linecap="round" stroke-linejoin="round" d="M10.5 23.5h-9a1 1 0 0 1-1-1v-21a1 1 0 0 1 1-1h13.293a1 1 0 0 1 .707.293L19.207 4.5a1 1 0 0 1 .293.707V8.5"></path><path stroke="currentColor" d="M17.5 21.417a.25.25 0 1 1 0-.5"></path><path stroke="currentColor" d="M17.5 21.417a.25.25 0 1 0 0-.5"></path></svg>