<svg xmlns="http://www.w3.org/2000/svg" viewBox="0 0 24 24"><path d="M11.25 17.25a6 6 0 1 0 12 0 6 6 0 1 0-12 0" fill="none" stroke="currentColor" stroke-linecap="round" stroke-linejoin="round"></path><path d="m17.25 14.25 0 6" fill="none" stroke="currentColor" stroke-linecap="round" stroke-linejoin="round"></path><path d="M17.25 20.25 15 18" fill="none" stroke="currentColor" stroke-linecap="round" stroke-linejoin="round"></path><path d="M17.25 20.25 19.5 18" fill="none" stroke="currentColor" stroke-linecap="round" stroke-linejoin="round"></path><path d="M8.25 18.75h-6a1.5 1.5 0 0 1-1.5-1.5V6.75a1.5 1.5 0 0 1 1.5-1.5h15a1.5 1.5 0 0 1 1.5 1.5v1.5" fill="none" stroke="currentColor" stroke-linecap="round" stroke-linejoin="round"></path><path d="m18.266 5.647-2.821-4.229A1.5 1.5 0 0 0 14.2.75H5.3a1.5 1.5 0 0 0-1.248.668L1.234 5.647" fill="none" stroke="currentColor" stroke-linecap="round" stroke-linejoin="round"></path><path d="m9.75.75 0 4.5" fill="none" stroke="currentColor" stroke-linecap="round" stroke-linejoin="round"></path></svg>